# xmcd CD database file
#
# Track frame offsets:
#	150
#	19565
#	42597
#
# Disc length: 819 seconds
#
# Revision: 0
# Processed by: cddbd v1.5.1PL0 Copyright (c) Steve Scherf et al.
# Submitted via: CDex 1.51
#
DISCID=1c033103
DTITLE=岡本真夜 - かけがえない人よ
DYEAR=2005
DGENRE=JPop
TTITLE0=かけがえない人よ
TTITLE1=空
TTITLE2=かけがえない人よ (Instrumental)
EXTD=YEAR: 2005
EXTT0=
EXTT1=
EXTT2=
PLAYORDER=
